<?xml version="1.0" encoding="UTF-8" standalone="no"?>
<svg
   data-name="Layer 1"
   width="741.84606"
   height="522.41797"
   viewBox="0 0 741.84606 522.41797"
   version="1.1"
   id="svg329"
   sodipodi:docname="onboarding_one.svg"
   inkscape:version="1.2.2 (b0a8486, 2022-12-01)"
   xmlns:inkscape="http://www.inkscape.org/namespaces/inkscape"
   xmlns:sodipodi="http://sodipodi.sourceforge.net/DTD/sodipodi-0.dtd"
   xmlns="http://www.w3.org/2000/svg"
   xmlns:svg="http://www.w3.org/2000/svg">
  <defs
     id="defs333" />
  <sodipodi:namedview
     id="namedview331"
     pagecolor="#ffffff"
     bordercolor="#000000"
     borderopacity="0.25"
     inkscape:showpageshadow="2"
     inkscape:pageopacity="0.0"
     inkscape:pagecheckerboard="0"
     inkscape:deskcolor="#d1d1d1"
     showgrid="false"
     inkscape:zoom="0.50383782"
     inkscape:cx="434.66368"
     inkscape:cy="502.14571"
     inkscape:window-width="1386"
     inkscape:window-height="706"
     inkscape:window-x="1749"
     inkscape:window-y="165"
     inkscape:window-maximized="0"
     inkscape:current-layer="svg329" />
  <path
     d="M520.793,516.6474a10.74264,10.74264,0,0,0-10.95628-12.30071l-68.80437-69.56692-13.59213,19.00109,71.90643,62.40721a10.80091,10.80091,0,0,0,21.44635.45933Z"
     transform="translate(-229.07697 -188.79102)"
     fill="#ffb8b8"
     id="path269" />
  <path
     d="M488.20078,476.47743l-17.5613,17.542a4.51352,4.51352,0,0,1-6.335.02552L416.317,446.86677a17.603,17.603,0,1,1,24.93713-24.849l46.98661,48.13244A4.51547,4.51547,0,0,1,488.20078,476.47743Z"
     transform="translate(-229.07697 -188.79102)"
     fill="#fa941e"
     id="path271" />
  <circle
     cx="197.53395"
     cy="177.02015"
     r="24.56103"
     fill="#ffb8b8"
     id="circle273" />
  <polygon
     points="114.543 471.345 120.762 481.91 164.474 462.951 155.295 447.357 114.543 471.345"
     fill="#ffb8b8"
     id="polygon275" />
  <path
     d="M345.48345,655.41085l12.24733,20.80687.00049.00085a15.386,15.386,0,0,1-5.45551,21.06459l-.4309.25361-20.05237-34.067Z"
     transform="translate(-229.07697 -188.79102)"
     fill="#2f2e41"
     id="path277" />
  <polygon
     points="186.6 509.407 198.86 509.407 204.692 462.119 186.598 462.12 186.6 509.407"
     fill="#ffb8b8"
     id="polygon279" />
  <path
     d="M412.55,694.1958l24.1438-.001h.001a15.38605,15.38605,0,0,1,15.38647,15.38623v.5l-39.53052.00146Z"
     transform="translate(-229.07697 -188.79102)"
     fill="#2f2e41"
     id="path281" />
  <path
     d="M366.38843,669.54838a4.49319,4.49319,0,0,1-3.624-1.833l-11.82373-16.0586a4.4996,4.4996,0,0,1,1.12452-6.41015l52.614-35.1416-31.74658-83.47461,67.88916,5.60254,2.28662,71.7334a36.04577,36.04577,0,0,1-18.04517,32.42382l-56.42651,32.55371A4.48594,4.48594,0,0,1,366.38843,669.54838Z"
     transform="translate(-229.07697 -188.79102)"
     fill="#2f2e41"
     id="path283" />
  <path
     d="M416.04712,688.59818a4.49988,4.49988,0,0,1-4.48877-4.33984l-2.488-69.88184,30.80835-1.623-2.45312,70.38379a4.48729,4.48729,0,0,1-4.19971,4.333l-16.8728,1.11817C416.25073,688.59525,416.14868,688.59818,416.04712,688.59818Z"
     transform="translate(-229.07697 -188.79102)"
     fill="#2f2e41"
     id="path285" />
  <path
     d="M448.67871,546.1099c-7.83838,0-35.21655-8.81641-44.72119-11.959-1.42188,1.13769-9.23315,6.97851-18.35107,5.91113-5.626-.66016-10.57886-3.84473-14.721-9.46582-9.147-12.41406,2.15063-65.65137,13.239-108.126a34.26782,34.26782,0,0,1,40.52857-24.87988h0a34.57136,34.57136,0,0,1,26.08764,25.37793c2.08765,8.498.29175,18.49414-1.01953,25.79394-.61645,3.43164-1.10351,6.14258-.937,7.47461.64355,5.14844,4.21875,85.8916,1.91992,89.33985C450.45923,545.94388,449.75122,546.1099,448.67871,546.1099Z"
     transform="translate(-229.07697 -188.79102)"
     fill="#fa941e"
     id="path287" />
  <path
     d="M420.00379,546.25292a10.74266,10.74266,0,0,0,.9416-16.44569l.48533-97.84356-23.04478,3.8374,6.76925,94.97037a10.80091,10.80091,0,0,0,14.8486,15.48148Z"
     transform="translate(-229.07697 -188.79102)"
     fill="#ffb8b8"
     id="path289" />
  <path
     d="M425.33374,494.79935H400.512a4.51352,4.51352,0,0,1-4.5-4.459l-.60937-67.292a17.603,17.603,0,1,1,35.2041.043l-.77319,67.25976A4.51547,4.51547,0,0,1,425.33374,494.79935Z"
     transform="translate(-229.07697 -188.79102)"
     fill="#fa941e"
     id="path291" />
  <path
     d="M420.35705,390.26988c-11.24529.02059-21.85416-8.868-23.80286-19.94323a28.67148,28.67148,0,0,1,.91927-13.01372,34.95394,34.95394,0,0,1,47.93529-21.95277c3.00832,1.36131,5.97146,3.31644,7.3489,6.31741s.51536,7.19528-2.49791,8.5456c-1.96915.88243-4.44022.4491-6.18718,1.71574-2.50929,1.81936-1.86334,5.69129-.74286,8.58112s2.38775,6.38691.50946,8.85239c-1.75023,2.29738-5.24872,2.22609-8.00435,1.36136s-5.47558-2.31276-8.34865-2.01821c-4.19039.4296-7.20172,4.59773-7.7591,8.77305s.75474,8.34892,2.05018,12.35714Z"
     transform="translate(-229.07697 -188.79102)"
     fill="#2f2e41"
     id="path293" />
  <path
     d="M727.69556,415.33663c0-67.16541,54.44832-226.54561,121.61373-226.54561S970.923,348.17122,970.923,415.33663a121.61373,121.61373,0,1,1-243.22747,0Z"
     transform="translate(-229.07697 -188.79102)"
     fill="#fa941e"
     id="path295" />
  <path
     d="M849.30925,711.209a1,1,0,0,1-1-1V290.9248a1,1,0,0,1,2,0V710.209A1,1,0,0,1,849.30925,711.209Z"
     transform="translate(-229.07697 -188.79102)"
     fill="#3f3d56"
     id="path297" />
  <path
     d="M849.30925,371.87061a.99683.99683,0,0,1-.70715-.293l-48.13452-48.13428a1,1,0,0,1,1.41431-1.41406l48.13452,48.13427a1,1,0,0,1-.70716,1.707Z"
     transform="translate(-229.07697 -188.79102)"
     fill="#3f3d56"
     id="path299" />
  <path
     d="M849.30925,455.20068a1,1,0,0,1-.70715-1.707l80.61-80.61035a1,1,0,0,1,1.4143,1.41406l-80.61,80.61035A.997.997,0,0,1,849.30925,455.20068Z"
     transform="translate(-229.07697 -188.79102)"
     fill="#3f3d56"
     id="path301" />
  <path
     d="M512.75454,516.07833c15.95481-3.60678,34.03035,8.87341,34.59062,25.62768.15759,4.71249-1.22354,9.66138-4.84973,12.86729-2.99372,2.64675-7.44863,3.9815-11.3187,2.68784-7.44737-2.48945-7.845-12.86687-3.85-18.40942,5.40939-7.50479,16.12575-8.78623,24.62919-7.89363,10.3961,1.09127,20.27689,5.64956,28.56833,11.89757,16.5987,12.50793,27.168,31.67789,35.72289,50.19942a253.09711,253.09711,0,0,1,18.95912,59.57906q.72364,3.8748,1.32589,7.77061a1.51056,1.51056,0,0,0,1.8598,1.02108,1.53833,1.53833,0,0,0,1.02107-1.8598,256.43885,256.43885,0,0,0-19.2345-65.06188c-8.95744-20.07249-20.2501-40.89324-38.21465-54.28884-8.95541-6.67776-19.53073-11.32453-30.72247-12.31825-9.42172-.83656-20.57851,1.15666-26.43759,9.351-4.62229,6.46462-4.15275,17.20837,2.9993,21.71061,3.932,2.47519,8.9283,2.186,13.011.26156a16.66327,16.66327,0,0,0,8.786-10.89127c2.5395-9.30518-1.31669-19.36986-7.92811-26.021a33.31988,33.31988,0,0,0-23.45167-9.86212,29.53,29.53,0,0,0-6.30452.75164c-1.88353.42579-1.04178,3.306.83872,2.88088Z"
     transform="translate(-229.07697 -188.79102)"
     fill="#ccc"
     id="path303" />
  <path
     d="M589.698,700.34085l-9.91475-16.92813,12.22567-7.16079,9.91474,16.92759v.00053a7.0842,7.0842,0,0,1-12.22566,7.1608Z"
     transform="translate(-229.07697 -188.79102)"
     fill="#fa941e"
     id="path305" />
  <circle
     cx="327.83846"
     cy="467.64477"
     r="8.71897"
     fill="#fa941e"
     id="circle307" />
  <path
     d="M628.05951,700.34085l-9.91474-16.92813,12.22539-7.16079,9.91475,16.92759a7.08423,7.08423,0,0,1-12.2254,7.16133Z"
     transform="translate(-229.07697 -188.79102)"
     fill="#fa941e"
     id="path309" />
  <path
     d="M558.572,674.00087a18.5487,18.5487,0,0,1,18.52781-18.52781h58.65109a7.84026,7.84026,0,0,1,7.83106,7.83132v6.67387a22.57592,22.57592,0,0,1-22.55044,22.55044H577.09978A18.5487,18.5487,0,0,1,558.572,674.00087Z"
     transform="translate(-229.07697 -188.79102)"
     fill="#3f3d56"
     id="path311" />
  <path
     d="M572.09744,702.52378V682.9061h14.16833v19.61768a7.08416,7.08416,0,1,1-14.16833,0Z"
     transform="translate(-229.07697 -188.79102)"
     fill="#3f3d56"
     id="path313" />
  <path
     d="M613.21,702.52378V682.9061h14.16833v19.61768a7.08417,7.08417,0,1,1-14.16833,0Z"
     transform="translate(-229.07697 -188.79102)"
     fill="#3f3d56"
     id="path315" />
  <path
     d="M670.85511,624.90772A8.719,8.719,0,0,1,684.451,635.82717l-14.33179,17.84456-13.59585-10.91946Z"
     transform="translate(-229.07697 -188.79102)"
     fill="#fa941e"
     id="path317" />
  <path
     d="M636.332,660.06044l11.48163-14.29581a16.81159,16.81159,0,0,1,23.6078-2.57733l3.58734,2.88115a20.04437,20.04437,0,0,1,3.07294,28.14757l-9.45955,11.77812a6.29434,6.29434,0,0,1-8.83883.96477l-22.48639-18.05985A6.29412,6.29412,0,0,1,636.332,660.06044Z"
     transform="translate(-229.07697 -188.79102)"
     fill="#3f3d56"
     id="path319" />
  <path
     d="M672.56128,622.78336a5.99429,5.99429,0,1,1,9.34715,7.50713L665.87048,650.2594l-9.34715-7.50713Z"
     transform="translate(-229.07697 -188.79102)"
     fill="#3f3d56"
     id="path321" />
  <path
     d="M649.58579,656.16211l24.64248,19.79151a8.719,8.719,0,0,1-10.91945,13.59586L638.66633,669.758Z"
     transform="translate(-229.07697 -188.79102)"
     fill="#3f3d56"
     id="path323" />
  <ellipse
     cx="675.02816"
     cy="687.57741"
     rx="3.67832"
     ry="2.04351"
     transform="translate(-512.82845 594.53242) rotate(-51.23045)"
     fill="#fa941e"
     id="ellipse325" />
  <path
     d="M921.077,711.02362h-691a1,1,0,1,1,0-2h691a1,1,0,0,1,0,2Z"
     transform="translate(-229.07697 -188.79102)"
     fill="#ccc"
     id="path327" />
  <path
     style="fill:#800080;fill-opacity:1;stroke-width:2.21364"
     d="m 595.46794,344.07289 c -43.49988,-9.42006 -80.49163,-45.08642 -91.80302,-88.51377 -9.8237,-37.71571 4.28224,-107.8807 34.39136,-171.067619 39.1666,-82.1949253 82.35444,-103.610608 124.31874,-61.646307 48.92732,48.92732 90.02312,179.751196 73.83433,235.043336 -10.0534,34.33701 -32.42674,61.08596 -63.61552,76.05697 -15.72826,7.54978 -36.91636,13.59527 -47.64837,13.59527 -2.30294,0 -2.9139,-8.46587 -2.9139,-40.377 V 266.78679 L 662.327,226.44714 c 22.16249,-22.1868 39.55868,-41.0764 38.6582,-41.97688 -0.90048,-0.90048 -19.03343,15.73764 -40.29544,36.97362 l -38.6582,38.61085 v -80.22057 c 0,-52.00462 -0.7786,-80.220564 -2.21363,-80.220564 -1.39011,0 -2.21364,14.190314 -2.21364,38.143684 v 38.14368 L 595.53954,153.919 c -12.13561,-12.09008 -22.79412,-21.25258 -23.68558,-20.36112 -0.89146,0.89145 9.03768,12.31249 22.06475,25.38009 l 23.68558,23.75925 V 265.119 c 0,77.08821 -0.25068,82.41039 -3.87386,82.24578 -2.13062,-0.0967 -10.34874,-1.57814 -18.26249,-3.29189 z"
     id="path686" />
  <path
     style="fill:#000000;fill-opacity:1;stroke-width:2.21364"
     d="m 205.71402,353.82743 c -9.97261,-2.66336 -13.12773,-10.46338 -13.12773,-32.45404 v -15.8917 h -10.16008 -10.16008 l 1.54305,18.52403 c 1.47743,17.73642 1.32376,18.67761 -3.61429,22.13635 -7.96571,5.5794 -16.87726,4.52967 -24.26523,-2.85829 -5.36811,-5.36811 -6.46919,-8.29124 -6.4622,-17.15568 0.0194,-24.54588 15.16414,-94.30193 22.49826,-103.62576 17.47584,-22.21692 54.14372,-13.18479 58.55859,14.42433 1.05585,6.60292 5.04008,11.95682 19.89564,26.7352 10.21647,10.1634 18.5754,19.53867 18.5754,20.83393 0,1.29526 -4.47994,6.75174 -9.95541,12.12551 l -9.95542,9.7705 -8.40041,-8.20278 c -4.62023,-4.51153 -8.90865,-8.20278 -9.52983,-8.20278 -0.62118,0 -0.70494,14.94203 -0.18615,33.20453 1.05519,37.14382 2.0007,35.24484 -15.25412,30.63665 z"
     id="path688" />
  <path
     style="fill:#000000;fill-opacity:1;stroke-width:2.21364"
     d="m 183.08748,478.00855 c -0.7222,-11.14718 -1.8077,-20.76222 -2.41224,-21.36676 -0.60454,-0.60454 -9.91096,3.98643 -20.68094,10.20216 -10.76998,6.21572 -20.70874,11.30131 -22.08615,11.30131 -2.2449,0 -16.1582,-15.73253 -16.1582,-18.27097 0,-0.56738 12.4517,-9.27975 27.67044,-19.36083 15.21875,-10.08108 27.67022,-18.43874 27.66995,-18.57257 -2.8e-4,-0.13384 -5.88772,-15.68344 -13.08321,-34.55468 l -13.08271,-34.31135 10.30548,-1.2688 c 8.9726,-1.1047 10.82866,-0.60367 14.35069,3.87386 4.70425,5.98048 11.68834,6.63434 17.23613,1.61367 2.70912,-2.45172 5.929,-3.08324 10.54788,-2.06876 6.15706,1.35232 6.76195,2.36909 8.18494,13.75827 0.8451,6.76393 0.79871,24.87822 -0.10308,40.25397 -0.90179,15.37577 -2.2768,41.40377 -3.05558,57.84001 l -1.41596,29.88408 -11.28718,0.65749 -11.28718,0.6575 z"
     id="path759" />
  <path
     style="fill:#000000;fill-opacity:1;stroke-width:2.21364"
     d="m 361.44278,520.78813 c 5.81986,-0.4575 14.78508,-0.45199 19.92272,0.0123 5.13764,0.46425 0.37594,0.83857 -10.58156,0.83183 -10.9575,-0.007 -15.16102,-0.38659 -9.34116,-0.8441 z"
     id="path761" />
  <path
     style="fill:#000000;fill-opacity:1;stroke-width:2.21364"
     d="m 345.40502,515.92259 c -1.26034,-2.35496 -2.29152,-6.26288 -2.29152,-8.68426 0,-2.42139 -3.09011,-7.49263 -6.8669,-11.26942 -5.55836,-5.55835 -6.58633,-8.01631 -5.39452,-12.89868 0.80981,-3.31749 3.42928,-8.02406 5.82105,-10.45906 3.94963,-4.02102 7.56031,-4.46226 39.349,-4.8086 l 35.00033,-0.38133 8.14492,-7.3664 c 4.47971,-4.05151 12.40068,-11.59997 17.60216,-16.77434 5.20149,-5.17437 10.6033,-9.40795 12.00403,-9.40795 5.1881,0 4.70091,3.99129 -1.51968,12.44999 l -6.39046,8.68968 5.3591,5.15795 c 6.099,5.87008 7.16647,16.87082 2.2849,23.54676 -1.69081,2.31232 -2.60014,5.4396 -2.02073,6.94951 0.5794,1.5099 -0.88149,4.82221 -3.24644,7.36068 l -4.2999,4.6154 -11.88228,-8.92818 c -12.9298,-9.71526 -15.32188,-10.60548 -15.32188,-5.70209 0,1.77434 -3.48645,6.00792 -7.74766,9.40795 -5.94423,4.7429 -7.74768,7.82609 -7.74773,13.24554 -3e-5,3.88502 -1.03983,7.70629 -2.31067,8.49171 -3.80124,2.34929 -8.75757,-3.47564 -8.75757,-10.29234 0,-6.36407 -0.0131,-6.36986 -14.38863,-6.36986 -14.28322,0 -14.38863,0.0454 -14.38863,6.19818 0,5.92292 -3.40095,11.5109 -7.00575,11.5109 -0.93116,0 -2.72421,-1.92678 -3.98454,-4.28174 z"
     id="path763" />
  <path
     style="fill:#800080;fill-opacity:1;stroke-width:2.21364"
     d="m 204.35258,351.95259 c -7.00141,-2.82093 -8.85529,-7.73711 -10.63733,-28.2084 l -1.58976,-18.2625 h -10.30078 -10.30079 l 0.80612,17.75096 c 0.53901,11.86936 -0.0954,18.83729 -1.91487,21.02954 -4.365,5.25951 -17.06911,4.08503 -23.30903,-2.15489 -4.68269,-4.68269 -5.43347,-7.47359 -5.43347,-20.198 0,-15.91791 8.04685,-59.30806 15.43442,-83.22532 7.25827,-23.49864 22.62736,-32.60933 41.96037,-24.87379 10.70649,4.28389 16.98076,11.53 20.13883,23.25819 1.56564,5.81434 7.84024,14.35465 19.93023,27.12689 9.70486,10.25251 17.64519,19.54946 17.64519,20.65988 0,1.11043 -3.98107,5.90637 -8.84682,10.65765 l -8.84683,8.6387 -7.30742,-7.08263 c -12.31782,-11.93891 -13.1451,-10.54906 -12.58384,21.14123 0.27493,15.52312 0.37685,29.96709 0.22649,32.09771 -0.29927,4.24075 -6.85254,4.95595 -15.07071,1.64478 z"
     id="path765" />
  <path
     style="fill:#000000;fill-opacity:1;stroke-width:2.21364"
     d="m 176.39679,193.88177 c -20.90631,-19.37531 4.49965,-55.69814 33.49663,-47.89006 4.80742,1.2945 10.07267,3.95849 11.70055,5.91996 2.54823,3.07043 2.11331,4.24128 -3.12774,8.42036 -4.85134,3.86832 -5.96192,6.39992 -5.46897,12.46664 0.61413,7.55813 0.55783,7.60781 -7.86613,6.9405 -10.66542,-0.84487 -14.75848,2.48631 -14.75848,12.01135 0,9.24348 -5.41125,10.06867 -13.97586,2.13125 z"
     id="path767" />
  <path
     style="fill:#e9c6af;fill-opacity:1;stroke-width:2.21364"
     d="m 255.00475,291.68106 c -16.53216,9.20954 -4.81347,18.66654 5.34392,27.45678 6.91952,5.38122 12.22377,15.28856 20.71818,17.60713 5.29205,0.0267 14.86327,-9.45232 4.52239,-9.72789 -7.78137,-0.62565 -0.46425,-4.42533 3.39395,-3.58419 2.42826,-6.05145 -8.47491,-7.06887 -11.37082,-10.94279 -7.97921,-6.23934 -14.6386,-15.05658 -22.60762,-20.80904 z"
     id="path842" />
  <path
     style="fill:#e9c6af;fill-opacity:1;stroke-width:2.21364"
     d="m 174.53132,307.71695 c 2.23734,16.0959 -2.16861,34.5087 4.81639,49.45659 7.82158,6.38015 20.47709,-6.59373 13.48501,-14.10328 -3.10244,-11.66998 -0.84277,-24.4328 -2.46007,-35.9759 -5.07749,0.55545 -11.23922,-1.00006 -15.84133,0.62259 z"
     id="path982" />
  <path
     style="fill:#e9c6af;fill-opacity:1;stroke-width:2.21364"
     d="m 216.88439,165.62057 c -6.52213,4.56452 4.34936,20.27185 -8.33572,16.40339 -6.26182,-0.3551 -17.68892,-1.51779 -16.29529,8.17575 -1.90985,6.52446 2.54706,14.23093 9.85327,10.13862 14.76593,-2.33176 25.06258,-23.13766 15.14092,-34.71776 l -0.20753,-0.013 z"
     id="path984" />
  <path
     style="fill:#800080;fill-opacity:1;stroke-width:0.562068"
     d="m 139.83749,335.50743 c -1.37354,2.07781 0.88562,4.89993 2.05725,6.72725 5.08827,6.57223 14.05625,11.80477 22.44101,8.55398 4.70349,-1.54936 11.53114,-3.74058 11.60034,-9.75166 0.54181,-1.36087 -1.27782,-2.47636 -1.65437,-0.77834 -1.77506,5.76155 -8.34854,8.4827 -13.9024,8.96016 -8.05002,0.51375 -14.57823,-5.6918 -18.74036,-11.89784 -0.43545,-0.64772 -0.78223,-1.98937 -1.80147,-1.81355 z"
     id="path1320" />
  <path
     style="fill:#800080;fill-opacity:1;stroke-width:0.562068"
     d="m 195.12544,346.20978 c 0.32469,1.74334 -1.03379,4.38403 0.35239,5.74363 1.87635,0.58458 4.50553,2.35131 6.32656,1.12084 -0.1725,-2.24593 -3.44359,-2.9662 -4.37249,-5.02458 -0.70553,-0.53016 -1.14192,-2.6192 -2.30646,-1.83989 z"
     id="path1322" />
  <path
     style="fill:#800080;fill-opacity:1;stroke-width:0.562068"
     d="m 221.22319,321.00893 c -0.57924,10.84069 0.17667,21.80592 -1.22075,32.58787 0.0686,2.85051 -4.51398,1.19303 -4.37139,3.49646 1.8971,0.38561 4.96817,1.14933 6.31777,-0.68063 1.15599,-7.57205 0.30697,-15.38426 0.52374,-23.0403 -0.19519,-4.18969 0.26473,-8.53909 -0.33053,-12.63126 l -0.52584,-0.0955 z"
     id="path1324" />
  <path
     style="fill:#800080;fill-opacity:1;stroke-width:0.562068"
     d="m 204.37871,354.1457 c -1.69706,-0.181 -1.35081,2.07794 0.22614,1.59179 2.10518,0.23108 1.68626,-1.92584 -0.22614,-1.59179 z"
     id="path1326" />
  <path
     style="fill:#800080;fill-opacity:1;stroke-width:0.562068"
     d="m 219.34487,350.91929 c -2.94129,4.20593 -8.55515,2.40707 -12.70362,1.3942 -1.6246,-0.121 -4.34868,-2.35594 -5.42418,-0.60379 1.63822,2.15762 5.09263,2.22408 7.49571,3.26373 3.53859,0.83943 8.67437,2.5798 11.3193,-0.86506 0.4057,-0.88837 0.90803,-3.82593 -0.68721,-3.18908 z"
     id="path1328" />
  <path
     style="fill:#800080;fill-opacity:1;stroke-width:0.562068"
     d="m 221.33077,290.12483 c -1.43679,1.44688 1.82405,2.92632 2.46368,4.14947 4.55232,4.28713 8.79455,9.12472 13.9801,12.61596 1.95616,-1.04175 -1.40365,-2.92778 -2.04045,-4.03142 -4.54357,-4.38647 -8.84429,-9.22359 -14.11022,-12.73292 l -0.27225,-0.005 z"
     id="path1330" />
  <path
     style="fill:#800080;fill-opacity:1;stroke-width:0.562068"
     d="m 220.90812,306.40833 c -0.83246,3.36301 -0.26852,7.17031 -0.27774,10.68808 1.89716,1.34305 1.15693,-2.44093 1.3479,-3.53154 -0.37366,-2.2849 0.76402,-5.37488 -0.65739,-7.24107 z"
     id="path1332" />
  <path
     style="fill:#800080;fill-opacity:1;stroke-width:0.562068"
     d="m 255.84636,278.48058 c -1.62365,1.4728 1.59691,3.3094 2.133,4.78526 1.97568,1.89225 -2.68312,4.18469 -0.37983,5.48675 2.70869,-1.09971 4.34673,-4.95751 1.85197,-7.17625 -1.06715,-1.04643 -2.03052,-2.8525 -3.60514,-3.09576 z"
     id="path1338" />
  <path
     style="fill:#800080;fill-opacity:1;stroke-width:0.562068"
     d="m 187.09841,207.93554 c -9.68613,0.0368 -19.27418,4.81207 -25.27879,12.30951 0.87718,2.07099 3.13322,-1.01915 4.24515,-1.69937 13.32905,-12.22252 36.29136,-10.38562 47.48706,3.79615 4.27322,5.00655 5.94808,11.40451 7.60659,17.59317 1.87124,1.31877 1.4791,-2.29326 1.21964,-3.2758 -2.72208,-16.59487 -18.32784,-29.76358 -35.27965,-28.72366 z"
     id="path1340" />
  <path
     style="fill:#800080;fill-opacity:1;stroke-width:0.562068"
     d="m 161.51333,221.01461 c -3.63109,2.89903 -4.93418,7.96415 -6.46158,12.22278 -6.426,23.40782 -11.85162,47.15744 -15.23631,71.20903 -1.19322,9.42389 -2.01308,19.08901 -1.16137,28.49987 2.23329,-1.52279 0.61697,-6.57612 1.35261,-9.44098 1.47963,-25.64969 7.02641,-50.94975 13.35557,-75.84297 2.35677,-8.8243 4.91352,-17.62246 8.86465,-25.82878 0.0592,-0.418 -0.262,-0.85716 -0.71357,-0.81895 z"
     id="path1344" />
  <path
     style="fill:#800080;fill-opacity:1;stroke-width:0.562068"
     d="m 139.49498,332.90896 c -1.64645,0.5063 -0.0714,3.99475 0.92872,1.88381 0.1682,-0.67349 -0.0209,-1.91837 -0.92872,-1.88381 z"
     id="path1346" />
  <path
     style="fill:#800080;fill-opacity:1;stroke-width:0.368788"
     d="m 229.79942,251.94685 c -0.6377,1.49925 1.68673,2.47813 2.359,3.67009 7.46316,7.9187 15.18908,15.632 22.58243,23.59284 1.21302,0.79172 2.1658,-1.13513 0.86867,-1.75679 -8.16401,-8.70756 -16.459,-17.32419 -25.13447,-25.51838 -0.2037,-0.16947 -0.44917,-0.003 -0.67563,0.0122 z"
     id="path1348" />
  <path
     style="fill:#800080;fill-opacity:1;stroke-width:0.368788"
     d="m 172.85053,305.09695 c -1.44489,1.04367 -0.37942,3.37564 -0.57969,4.90304 0.53128,7.42744 1.20952,14.85486 1.71342,22.2684 1.50806,1.17831 1.57881,-1.5628 1.42088,-2.51722 -0.42209,-8.0871 -0.6772,-16.23456 -1.73925,-24.25446 -0.16427,-0.2727 -0.4909,-0.46316 -0.81536,-0.39976 z"
     id="path1352" />
  <path
     style="fill:#800080;fill-opacity:1;stroke-width:0.368788"
     d="m 191.72425,309.32 c -0.0622,10.6355 -0.12576,21.35305 0.1102,31.97289 1.37854,1.47063 1.88842,3.52473 3.07059,5.07371 1.77993,0.13877 0.55628,-2.23273 0.36519,-3.18439 -2.7668,-8.94166 -1.78584,-18.45918 -2.28961,-27.69651 -0.20257,-2.09857 0.21818,-4.35059 -0.35169,-6.35874 -0.38721,-0.20826 -0.62343,-0.0919 -0.90468,0.19304 z"
     id="path1356" />
  <path
     style="fill:#000000;fill-opacity:1;stroke-width:0.368788"
     d="m 580.81765,144.75639 c -0.49227,1.50098 1.7351,2.40046 2.42401,3.58167 11.14274,11.59917 22.57189,22.91825 33.87781,34.35737 -0.11101,47.82506 0.25261,95.65373 -0.34677,143.47615 -0.34567,6.47728 0.13564,13.14443 -1.45395,19.45601 -0.38761,2.24099 -3.41537,0.32777 -4.25258,1.8994 0.71355,1.38689 2.92511,0.48653 4.21569,0.90996 1.23296,-0.2779 3.90848,1.17658 4.11012,-0.8437 0.63568,-14.7229 0.25873,-29.48015 0.39292,-44.21635 0.0187,-40.21515 0.006,-80.4303 0.01,-120.64545 -5.40989,-5.99099 -11.46872,-11.54833 -17.12723,-17.37317 -7.06402,-6.91661 -13.88128,-14.14017 -21.2483,-20.71785 l -0.36212,0.0698 z"
     id="path1364" />
  <path
     style="fill:#3f3d56;fill-opacity:1;stroke-width:0.368788"
     d="m 580.88391,144.44667 c -1.51221,1.01344 0.85261,2.47341 1.44833,3.37201 11.3821,11.83472 23.00501,23.43606 34.50056,35.16054 -0.24382,49.02008 -0.0536,98.04426 -0.71084,147.06114 -0.35344,5.3046 0.25218,10.87019 -1.48676,15.97042 -0.82715,0.98295 -4.0472,-0.0638 -3.28092,1.99304 2.30321,1.19211 5.14135,0.84624 7.67539,0.9162 1.20383,-1.12136 0.60433,-3.38896 0.84844,-5.02901 0.37391,-53.75357 0.2056,-107.50943 0.2853,-161.26401 -5.33681,-5.89158 -11.32591,-11.34519 -16.91262,-17.06899 -7.18893,-6.94429 -13.98562,-14.33264 -21.52126,-20.89814 -0.24852,-0.15682 -0.54565,-0.28614 -0.84562,-0.2132 z"
     id="path1782" />
  <path
     style="fill:#3f3d56;fill-opacity:1;stroke-width:0.368788"
     d="m 619.40135,101.07089 c -0.58082,6.79408 -0.2377,13.72148 -0.39854,20.56421 -0.0721,19.02249 -0.0264,38.04519 -0.0394,57.06777 -14.80821,-14.61129 -29.26158,-29.59102 -44.36834,-43.89438 -0.74017,-0.6885 -2.7324,-2.55865 -3.13109,-0.70589 1.90244,3.44021 5.21324,5.93963 7.78976,8.88275 0.72078,0.72238 1.46257,1.12327 0.88323,2.04331 1.29648,3.07751 4.29176,5.15844 6.3991,7.69618 9.85835,10.16161 19.87183,20.17153 29.80909,30.25583 0.0131,51.78248 -0.01,103.57096 -0.97632,155.34565 -0.27979,2.49293 0.0323,5.54638 -1.55117,7.6506 -1.1072,-0.0109 -3.65557,0.52787 -2.65426,2.12486 2.18171,1.42469 5.11229,1.43148 7.63433,1.13157 0.48997,6.69985 -0.27128,13.52485 0.48043,20.20914 0.61619,1.47359 2.50525,0.27535 2.0838,-1.06747 0.53254,-19.49201 0.15836,-39.00265 0.27659,-58.50184 0,-14.63818 0,-29.27637 0,-43.91455 25.23854,-25.38059 50.81917,-50.42612 75.73706,-76.12261 1.11779,-1.52375 3.14727,-2.72025 3.53142,-4.63254 -0.92964,-1.73834 -2.55818,0.55439 -3.34935,1.26554 -25.50613,24.97367 -50.61332,50.34905 -75.8968,75.54747 -0.17395,-53.03003 -0.007,-106.06336 -0.55534,-159.09086 -0.12222,-0.79344 -0.48794,-2.71218 -1.7042,-1.85474 z"
     id="path1784" />
  <path
     style="fill:#3f3d56;fill-opacity:1;stroke-width:0.368788"
     d="m 618.01407,108.5907 c -0.6694,4.17678 -0.25514,8.59579 -0.49014,12.85708 -0.28564,17.71744 -0.25114,35.46677 -0.65656,53.1653 -9.74556,-9.35035 -19.00355,-19.22514 -28.93183,-28.37217 -1.84439,0.0743 -0.002,1.91629 0.64534,2.4547 9.77176,10.10105 19.75799,19.99427 29.75084,29.87545 1.85912,0.18322 0.70697,-2.79439 1.03384,-4.02641 -0.0541,-21.88607 0.20469,-43.78752 -0.33877,-65.66367 -0.14638,-0.46239 -0.66632,-0.56949 -1.01272,-0.29028 z"
     id="path1786" />
  <path
     style="fill:#3f3d56;fill-opacity:1;stroke-width:0.368788"
     d="m 678.97929,203.37492 c -3.96885,2.96823 -7.24044,6.89127 -10.89594,10.26428 -15.59243,15.60711 -31.49646,30.91844 -46.67384,46.93095 -0.82186,1.00722 0.94763,1.50056 1.36134,0.49412 19.05031,-18.36859 37.68995,-37.16431 56.21493,-56.0615 0.61611,-0.34761 1.13733,-1.63589 -0.006,-1.62785 z"
     id="path1788" />
  <path
     style="fill:#3f3d56;fill-opacity:1;stroke-width:0.368788"
     d="m 666.10342,221.30002 c -14.71309,14.05335 -28.99312,28.57823 -43.25549,43.0948 -0.48485,0.7644 -2.36718,1.69982 -1.23674,2.62911 1.99355,-0.74193 3.23808,-2.98589 4.93569,-4.28262 13.56074,-13.42434 27.20008,-26.79146 40.3647,-40.6 0.25681,-0.51188 -0.26976,-1.12739 -0.80816,-0.84129 z"
     id="path1796" />
  <path
     style="fill:#3f3d56;fill-opacity:1;stroke-width:0.243612"
     d="m 679.10676,208.14816 c -4.36652,4.05661 -8.65954,8.2409 -12.62499,12.69636 -0.58418,0.82048 0.74285,1.41031 1.18951,0.63139 4.20268,-4.04047 8.40981,-8.11626 12.25053,-12.49985 0.26974,-0.48213 -0.31054,-1.11127 -0.81505,-0.8279 z"
     id="path1802" />
  <path
     style="fill:#3f3d56;fill-opacity:1;stroke-width:0.243612"
     d="m 688.42206,194.31843 c -3.21294,2.48121 -6.04429,5.47862 -8.93323,8.338 -0.90522,0.45237 -0.28747,1.93915 0.61712,1.27943 3.28454,-2.54569 6.18141,-5.59086 8.98366,-8.64964 0.34108,-0.4444 -0.10894,-1.14876 -0.66755,-0.96779 z"
     id="path1804" />
  <path
     style="fill:#3f3d56;fill-opacity:1;stroke-width:0.243612"
     d="m 619.87913,100.50507 c -1.59825,0.30856 -0.99617,2.4289 -1.17552,3.56162 -0.11309,1.29663 0.0973,2.95834 -0.1829,4.03412 -1.52463,0.16916 -1.05798,2.26986 -1.22096,3.34077 -0.47391,20.64823 -0.48892,41.32793 -0.94395,61.96193 -9.4956,-9.08191 -18.61329,-18.56782 -28.29179,-27.45819 -0.66233,-0.44317 -1.23955,0.57205 -1.67721,-0.39824 -4.35413,-4.01235 -8.39514,-8.38368 -12.92427,-12.19439 -0.84602,-0.86936 -2.74067,-0.37577 -2.24104,1.01156 1.46123,2.88175 4.12393,4.94959 6.22066,7.35831 0.93771,1.18273 2.51687,2.13766 2.48703,3.78502 0.97445,2.33437 3.17959,3.90321 4.75309,5.82777 10.28338,10.76456 20.82357,21.27925 31.25768,31.89685 -0.0926,19.23232 -0.18552,38.46464 -0.27882,57.69696 0.80207,1.24221 2.8457,0.3213 4.17042,0.60285 1.91271,0.56896 2.61795,-0.86085 2.22127,-2.54889 -0.0484,-44.48979 0.0741,-88.98303 -0.57533,-133.46918 -0.2931,-1.56388 0.53939,-3.81283 -1.01693,-4.87755 -0.17755,-0.0941 -0.38015,-0.14399 -0.58143,-0.13132 z m -0.73654,77.76068 c 0.46525,0.86918 -1.24611,0.72246 -0.55051,0.0481 0.15663,-0.11374 0.37782,-0.13475 0.55051,-0.0481 z"
     id="path1814" />
  <path
     style="fill:#3f3d56;fill-opacity:1;stroke-width:0.243612"
     d="m 619.98,100.03831 c -1.86818,0.23841 -1.72346,2.48656 -1.7431,3.89342 -0.13182,1.23055 0.12604,2.72271 -0.33854,3.80652 -1.34645,1.25205 -0.88954,3.4245 -1.08876,5.07813 -0.38612,19.81651 -0.63617,39.63652 -0.86822,59.45471 -9.07095,-8.52413 -17.64973,-17.57267 -26.89306,-25.91763 -0.90602,-0.87604 -2.25572,-0.89689 -3.0631,-1.93452 -4.28089,-3.71079 -8.03953,-8.02208 -12.52364,-11.49162 -1.15615,-1.14959 -3.57173,0.28478 -2.5446,1.79521 2.24291,3.7991 5.96285,6.49008 8.37082,10.09133 1.05362,3.43836 4.21493,5.5934 6.4419,8.24044 9.83787,10.18766 19.82452,20.23019 29.75015,30.33206 -0.1032,19.18601 -0.20645,38.37202 -0.30975,57.55803 0.79334,1.2391 2.81153,0.27669 4.12557,0.52329 1.26843,-0.0761 3.66295,0.44494 3.12569,-1.63048 0.15164,-44.4968 0.0829,-88.99614 -0.4722,-133.49001 -0.21206,-1.87694 0.26723,-4.07525 -0.84578,-5.71651 -0.29883,-0.30476 -0.66784,-0.61812 -1.12338,-0.59237 z m -0.83741,78.22744 c 0.46525,0.86918 -1.24611,0.72246 -0.55051,0.0481 0.15663,-0.11374 0.37782,-0.13475 0.55051,-0.0481 z"
     id="path1816" />
  <path
     style="fill:#3f3d56;fill-opacity:1;stroke-width:0.243612"
     d="m 498.5286,218.84233 c -0.77712,6.56082 -0.32375,13.27919 0.2774,19.86911 2.57737,26.4717 14.17775,51.95123 32.40973,71.31224 19.44791,20.87665 46.45088,34.40662 74.75953,37.77836 1.66188,0.0339 3.46557,0.74641 5.07342,0.17165 0.9055,-0.91018 -0.55454,-1.70452 -1.39741,-1.65242 -11.8896,-2.04216 -23.83975,-4.50185 -34.94506,-9.44553 -33.32323,-14.38062 -59.92392,-44.04129 -69.90005,-79.00937 -3.53341,-12.5512 -4.15309,-25.64628 -3.53455,-38.59486 -0.22744,-1.00184 -2.03182,-0.64857 -2.74301,-0.42918 z"
     id="path1820" />
  <path
     style="fill:#3f3d56;fill-opacity:1;stroke-width:0.243612"
     d="m 740.60921,218.65106 c -1.98446,-0.48564 -1.43443,1.82909 -1.48474,3.03563 9.9e-4,10.09217 0.26276,20.25936 -1.95152,30.15124 -2.98028,13.66232 -8.74445,26.60473 -16.04649,38.49398 -11.71287,18.57918 -28.87597,33.71787 -48.73484,43.18436 -12.26346,5.72769 -25.24607,10.13489 -38.59595,12.61943 -2.99067,0.47071 -6.06306,0.97811 -9.11567,0.83261 -1.47679,-2.59304 -1.33415,-5.74129 -1.63667,-8.61312 -0.59827,-16.96811 -0.38552,-34.01728 -0.55106,-51.01832 -0.0973,-6.8884 0.0644,-13.83208 -0.19499,-20.68592 -1.66049,-1.09091 -0.97402,2.15322 -1.10513,3.14811 -0.0314,26.10325 -0.0631,52.2065 -0.095,78.30976 0.7266,1.20664 2.61547,0.26348 3.85766,0.4438 23.08475,-0.9577 45.87458,-8.49084 64.82473,-21.74007 24.78413,-17.11094 42.82786,-43.68827 49.445,-73.08202 2.48663,-11.2988 3.6441,-22.94821 2.86676,-34.50898 -0.15385,-0.75408 -0.91876,-0.54132 -1.48213,-0.57049 z"
     id="path1822" />
  <path
     style="fill:#3f3d56;fill-opacity:1;stroke-width:0.243612"
     d="m 575.06075,23.787355 c -1.86766,0.406195 -2.77123,2.462131 -4.07605,3.68037 -15.99552,18.422662 -27.83233,40.026807 -37.90415,62.132866 -12.81779,28.604759 -22.52171,58.602079 -29.07565,89.249889 -2.68123,12.92674 -4.69602,26.00144 -5.65443,39.17345 -0.40545,1.51222 2.37008,1.45199 2.83026,0.54957 0.84909,-12.33531 2.35773,-24.58041 4.76786,-36.69785 6.86476,-35.16931 18.93855,-69.20649 34.58395,-101.419017 9.82421,-19.831574 21.0907,-39.293208 36.24158,-55.571122 0.57361,-1.182341 -0.98944,-1.053005 -1.71337,-1.098156 z"
     id="path1824" />
  <path
     style="fill:#3f3d56;fill-opacity:1;stroke-width:0.243612"
     d="m 619.58937,-0.39301426 c -11.11344,0.12487438 -21.72289,4.69986996 -30.57142,11.21062026 -5.10721,3.702731 -9.99305,7.844952 -14.16359,12.550691 -0.0783,1.083163 1.79446,1.239189 2.57447,0.668379 3.58312,-3.07911 6.84505,-6.550949 10.68652,-9.337161 7.99977,-6.1558323 17.42561,-11.030535 27.62048,-12.0235922 12.43924,-1.4309972 24.7886,3.2570225 34.78973,10.6050552 14.15738,10.352051 24.89313,24.583289 34.29792,39.234538 13.88124,21.958566 24.47726,45.894694 33.36964,70.269084 0.22467,1.05242 1.31656,2.41929 2.45468,1.58776 0.61002,-1.29893 -0.63539,-2.70567 -0.85576,-3.99309 C 712.56478,100.28249 703.94339,80.641998 693.46847,62.017765 683.62598,44.896203 672.26828,28.243951 657.19455,15.280927 646.72764,6.3850607 633.69994,-0.76638877 619.58937,-0.39301426 Z"
     id="path1826" />
  <path
     style="fill:#3f3d56;fill-opacity:1;stroke-width:0.243612"
     d="m 719.03197,124.32097 c -0.19243,1.62809 0.97075,3.24106 1.33229,4.86084 8.22057,24.48745 14.43321,49.7445 17.52521,75.41602 0.61403,4.69982 0.80451,9.48671 1.29073,14.17579 0.79731,0.66486 3.62233,0.71977 2.91019,-1.0525 -1.6846,-22.58043 -6.37627,-44.89185 -12.48048,-66.68406 -2.54337,-8.7176 -5.13931,-17.43958 -8.2603,-25.96717 -0.31872,-0.97944 -1.47912,-1.1987 -2.31764,-0.74892 z"
     id="path1828" />
  <path
     style="fill:#3f3d56;fill-opacity:1;stroke-width:0.243612"
     d="m 621.56253,244.5153 c -0.20763,3.94121 -0.12533,7.9466 -0.0409,11.90177 0.91061,1.12884 1.46364,-0.51746 1.2014,-1.29943 0.0284,-3.47636 0.0734,-6.95697 -0.0414,-10.43105 -0.18213,-0.52679 -0.7882,-0.62175 -1.11909,-0.17129 z"
     id="path1830" />
  <path
     style="fill:#3f3d56;fill-opacity:1;stroke-width:0.243612"
     d="m 621.65911,257.04655 c -0.37956,0.75761 -0.39741,1.93567 0.0312,2.65003 1.19054,0.63958 1.13346,-1.15649 1.04178,-1.89873 0.0489,-0.59436 -0.46558,-1.18615 -1.07294,-0.7513 z"
     id="path1832" />
  <path
     style="fill:#3f3d56;fill-opacity:1;stroke-width:0.130677"
     d="m 688.06308,198.89405 c -1.74285,1.42826 -3.25675,3.14542 -4.8885,4.70663 -1.29741,1.3943 -2.81688,2.62271 -3.90258,4.19344 -0.3883,0.81265 0.81959,1.40085 1.3106,0.70264 2.78924,-2.81068 5.51359,-5.69406 8.15275,-8.64637 0.35582,-0.47928 -0.0925,-1.14026 -0.67227,-0.95634 z"
     id="path1838" />
  <path
     style="fill:#3f3d56;fill-opacity:1;stroke-width:0.130677"
     d="m 621.84155,240.79055 c -0.96004,0.20191 -0.69854,1.44491 -0.78605,2.16736 -0.0295,0.67267 -0.14841,1.92168 0.85215,1.87188 0.9628,-0.21221 0.64678,-1.46468 0.71368,-2.1771 -0.0487,-0.62352 0.17352,-1.84319 -0.77978,-1.86214 z"
     id="path1842" />
  <path
     style="fill:#3f3d56;fill-opacity:1;stroke-width:0.130677"
     d="m 692.44229,190.50853 c -1.38729,0.9953 -2.6314,2.21091 -3.84425,3.41444 -0.53153,0.66965 0.5245,1.60408 1.1008,0.9395 1.23907,-1.10986 2.49985,-2.24727 3.51398,-3.56452 0.1728,-0.45877 -0.30457,-0.95732 -0.77053,-0.78942 z"
     id="path1844" />
  <path
     style="fill:#3f3d56;fill-opacity:1;stroke-width:0.130677"
     d="m 689.83258,197.05922 c -0.73313,0.36537 -1.40292,1.02905 -1.75418,1.77077 -0.12254,0.75576 0.89476,0.93308 1.27282,0.39101 0.4641,-0.52372 1.44206,-1.05951 1.13653,-1.87669 -0.15813,-0.20788 -0.38803,-0.3442 -0.65517,-0.28509 z"
     id="path1846" />
  <path
     style="fill:#3f3d56;fill-opacity:1;stroke-width:0.863919"
     d="m 327.47102,458.92683 c -7.48469,0.25034 -11.4528,11.01418 -5.02996,15.52186 4.36654,4.28887 10.76541,1.15988 13.18995,-3.54848 3.5707,-5.36109 -2.55607,-12.22885 -8.15999,-11.97338 z"
     id="path1850" />
  <path
     style="fill:#3f3d56;fill-opacity:1;stroke-width:0.863919"
     d="m 360.99346,504.08855 c -1.71157,-0.24615 -5.18812,0.21346 -3.39662,2.63395 2.21449,4.23222 7.02337,11.36492 12.48971,7.38381 3.75188,-1.34617 5.92079,-9.4943 0.47077,-9.67691 -3.17359,-0.31159 -6.37648,-0.38986 -9.56386,-0.34085 z"
     id="path1852" />
  <path
     style="fill:#3f3d56;fill-opacity:1;stroke-width:0.863919"
     d="m 403.03192,500.41183 c -5.84566,1.54348 -5.85042,9.94678 -1.89826,13.33845 5.37168,4.61268 14.09581,-3.09928 10.07681,-8.99523 -2.25952,-4.19763 -2.63601,-9.17424 -8.17855,-4.34322 z"
     id="path1854" />
  <path
     style="fill:#3f3d56;fill-opacity:1;stroke-width:0.863919"
     d="m 454.04535,435.44408 c 0.31747,7.95704 -8.56652,12.12182 -10.55602,19.16484 0.61477,2.24572 3.74474,4.40425 4.86798,1.07315 3.23311,-4.93268 10.49515,-9.91241 8.48228,-16.62708 -0.78176,-1.1795 -1.19349,-4.02689 -2.79424,-3.61091 z"
     id="path1856" />
  <path
     style="fill:#3f3d56;fill-opacity:1;stroke-width:0.402169"
     d="m 447.26892,495.32188 c -2.54253,0.36495 -5.12862,3.45546 -4.14344,6.0349 1.38061,2.13865 4.01986,-0.0764 4.92893,-1.56391 0.98201,-1.32339 1.75604,-4.41423 -0.78549,-4.47099 z"
     id="path1860" />
  <path
     style="fill:#3f3d56;fill-opacity:1;stroke-width:0.402169"
     d="m 361.04679,503.7258 c -1.52026,-0.0714 -4.58082,0.0888 -3.9997,2.35411 1.82185,4.16485 4.90776,8.78249 9.70626,9.63557 4.37281,-0.47713 9.11186,-5.38431 6.79054,-9.85551 -1.64853,-2.888 -5.57166,-1.60004 -8.24665,-2.06368 -1.41635,-0.0423 -2.83331,-0.0864 -4.25045,-0.0705 z"
     id="path1862" />
  <path
     style="fill:#3f3d56;fill-opacity:1;stroke-width:0.402169"
     d="m 361.61469,503.32678 c -2.37883,-0.21733 -5.82614,0.70422 -5.49919,3.74206 -0.10131,4.42381 -1.1229,9.12012 -4.51891,12.21668 -0.79421,1.63225 1.74889,1.56752 2.43187,0.61111 2.69374,-1.91649 3.88902,-5.18195 3.6588,-8.41257 0.16113,-1.27174 -0.35503,-4.50721 0.77982,-2.01858 2.13166,3.23038 5.55115,7.22235 9.86589,6.29634 3.82104,-1.37261 7.67442,-6.1179 5.45677,-10.20976 -2.13551,-2.78524 -6.26954,-1.8172 -9.31567,-2.19294 -0.9529,-0.0232 -1.90618,-0.0386 -2.85938,-0.0323 z"
     id="path1864" />
  <path
     style="fill:#3f3d56;fill-opacity:1;stroke-width:0.402169"
     d="m 413.14658,484.82306 c -2.72238,0.72262 -1.20604,4.39188 -3.10425,5.94142 -2.97562,4.09157 -7.50853,6.83344 -10.59936,10.80359 -0.088,2.09942 -2.01244,4.0259 -1.35104,6.33103 0.26955,3.82695 3.17001,8.02586 7.46056,7.4582 3.31342,-0.16426 6.25705,-3.18837 6.84316,-6.36638 0.0837,-3.70306 -1.95981,-7.17929 -4.01541,-10.11628 -0.97795,-0.57997 -1.42898,-0.67931 -0.27728,-1.46572 2.78831,-3.31896 5.49056,-7.19036 6.16372,-11.54509 -0.0131,-0.59041 -0.50396,-1.12184 -1.1201,-1.04077 z"
     id="path1866" />
  <path
     style="fill:#3f3d56;fill-opacity:1;stroke-width:0.402169"
     d="m 447.85725,431.35652 c -4.19061,0.51078 -6.32008,4.89537 -8.87558,7.71849 -0.8002,0.54157 -1.95047,2.88525 -0.11982,2.32711 3.5537,-2.25505 6.33045,-6.15734 10.57187,-7.1173 1.78093,-0.13893 2.93666,1.69521 2.20408,3.2904 -1.85536,5.8077 -6.47601,10.14854 -9.32373,15.40812 0.10781,1.5375 1.8942,-0.44545 1.08083,1.16566 -0.35838,2.26724 2.89408,4.97062 4.71292,2.80026 2.86085,-5.17291 8.72126,-8.97804 9.39521,-15.24316 -0.0789,-2.40611 -0.92142,-5.40336 -3.04926,-6.73005 -1.24735,0.28236 -1.56331,-1.94192 -2.85053,-2.37217 -1.08441,-0.76429 -2.40965,-1.25785 -3.74599,-1.24736 z"
     id="path1868" />
</svg>
