<?xml version="1.0" encoding="UTF-8" standalone="no"?>
<svg
   data-name="Layer 1"
   width="891.29496"
   height="745.19434"
   viewBox="0 0 891.29496 745.19434"
   version="1.1"
   id="svg2201"
   sodipodi:docname="onboarding_two.svg"
   inkscape:version="1.2.2 (b0a8486, 2022-12-01)"
   xmlns:inkscape="http://www.inkscape.org/namespaces/inkscape"
   xmlns:sodipodi="http://sodipodi.sourceforge.net/DTD/sodipodi-0.dtd"
   xmlns="http://www.w3.org/2000/svg"
   xmlns:svg="http://www.w3.org/2000/svg">
  <defs
     id="defs2205" />
  <sodipodi:namedview
     id="namedview2203"
     pagecolor="#ffffff"
     bordercolor="#000000"
     borderopacity="0.25"
     inkscape:showpageshadow="2"
     inkscape:pageopacity="0.0"
     inkscape:pagecheckerboard="0"
     inkscape:deskcolor="#d1d1d1"
     showgrid="false"
     inkscape:zoom="0.63234634"
     inkscape:cx="500.51685"
     inkscape:cy="387.4459"
     inkscape:window-width="1321"
     inkscape:window-height="710"
     inkscape:window-x="1735"
     inkscape:window-y="163"
     inkscape:window-maximized="0"
     inkscape:current-layer="svg2201" />
  <ellipse
     cx="418.64354"
     cy="727.19434"
     rx="352"
     ry="18"
     fill="#f2f2f2"
     id="ellipse2147" />
  <path
     d="M778.64963,250.35008h-3.99878V140.80476a63.40187,63.40187,0,0,0-63.4018-63.40193H479.16232a63.40188,63.40188,0,0,0-63.402,63.4017v600.9744a63.40189,63.40189,0,0,0,63.4018,63.40192H711.24875a63.40187,63.40187,0,0,0,63.402-63.40168V328.32632h3.99878Z"
     transform="translate(-154.35252 -77.40283)"
     fill="#3f3d56"
     id="path2149" />
  <path
     d="M761.156,141.24713v600.09a47.35072,47.35072,0,0,1-47.35,47.35h-233.2a47.35084,47.35084,0,0,1-47.35-47.35v-600.09a47.3509,47.3509,0,0,1,47.35-47.35h28.29a22.50659,22.50659,0,0,0,20.83,30.99h132.96a22.50672,22.50672,0,0,0,20.83-30.99h30.29A47.35088,47.35088,0,0,1,761.156,141.24713Z"
     transform="translate(-154.35252 -77.40283)"
     fill="#fff"
     id="path2151" />
  <path
     d="M686.03027,400.0032q-2.32543,1.215-4.73047,2.3-2.18994.99-4.4497,1.86c-.5503.21-1.10987.42-1.66992.63a89.52811,89.52811,0,0,1-13.6001,3.75q-3.43506.675-6.96,1.06-2.90991.33-5.87989.47c-1.41015.07-2.82031.1-4.24023.1a89.84124,89.84124,0,0,1-16.75977-1.57c-1.44043-.26-2.85009-.57-4.26025-.91a88.77786,88.77786,0,0,1-19.66992-7.26c-.56006-.28-1.12012-.58-1.68018-.87-.83008-.44-1.63965-.9-2.4497-1.38.38964-.54.81005-1.07,1.23974-1.59a53.03414,53.03414,0,0,1,78.87012-4.1,54.27663,54.27663,0,0,1,5.06006,5.86C685.25977,398.89316,685.6499,399.44321,686.03027,400.0032Z"
     transform="translate(-154.35252 -77.40283)"
     fill="#fa941e"
     id="path2153" />
  <circle
     cx="492.14325"
     cy="234.76352"
     r="43.90974"
     fill="#2f2e41"
     id="circle2155" />
  <circle
     cx="642.49883"
     cy="327.46205"
     r="32.68086"
     transform="translate(-232.6876 270.90663) rotate(-28.66315)"
     fill="#a0616a"
     id="circle2157" />
  <path
     d="M676.8388,306.90589a44.44844,44.44844,0,0,1-25.402,7.85033,27.23846,27.23846,0,0,0,10.796,4.44154,89.62764,89.62764,0,0,1-36.61.20571,23.69448,23.69448,0,0,1-7.66395-2.63224,9.699,9.699,0,0,1-4.73055-6.3266c-.80322-4.58859,2.77227-8.75743,6.488-11.567a47.85811,47.85811,0,0,1,40.21662-8.03639c4.49246,1.16124,8.99288,3.12327,11.91085,6.731s3.78232,9.16981,1.00224,12.88488Z"
     transform="translate(-154.35252 -77.40283)"
     fill="#2f2e41"
     id="path2159" />
  <path
     d="M644.5,230.17319a89.98675,89.98675,0,0,0-46.83984,166.83l.58007.34q.72.43506,1.43995.84c.81005.48,1.61962.94,2.4497,1.38.56006.29,1.12012.59,1.68018.87a88.77786,88.77786,0,0,0,19.66992,7.26c1.41016.34,2.81982.65,4.26025.91a89.84124,89.84124,0,0,0,16.75977,1.57c1.41992,0,2.83008-.03,4.24023-.1q2.97-.135,5.87989-.47,3.52513-.39,6.96-1.06a89.52811,89.52811,0,0,0,13.6001-3.75c.56005-.21,1.11962-.42,1.66992-.63q2.26464-.87,4.4497-1.86,2.40015-1.08,4.73047-2.3a90.7919,90.7919,0,0,0,37.03955-35.97c.04-.07995.09034-.16.13038-.24a89.30592,89.30592,0,0,0,9.6499-26.41,90.051,90.051,0,0,0-88.3501-107.21Zm77.06006,132.45c-.08008.14-.1499.28-.23.41a88.17195,88.17195,0,0,1-36.48,35.32q-2.29542,1.2-4.66992,2.25c-1.31006.59-2.64991,1.15-4,1.67-.57032.22-1.14991.44-1.73.64a85.72126,85.72126,0,0,1-11.73,3.36,84.69473,84.69473,0,0,1-8.95019,1.41c-1.8501.2-3.73.34-5.62012.41-1.21.05-2.42969.08-3.6499.08a86.762,86.762,0,0,1-16.21973-1.51,85.62478,85.62478,0,0,1-9.63037-2.36,88.46592,88.46592,0,0,1-13.98974-5.67c-.52-.27-1.04-.54-1.5503-.82-.73-.39-1.46972-.79-2.18994-1.22-.54-.3-1.08008-.62-1.60986-.94-.31006-.18-.62012-.37-.93018-.56a88.06851,88.06851,0,1,1,123.18018-32.47Z"
     transform="translate(-154.35252 -77.40283)"
     fill="#3f3d56"
     id="path2161" />
  <path
     d="M624.2595,268.86254c-.47244-4.968-6.55849-8.02647-11.3179-6.52583s-7.88411,6.2929-8.82863,11.19308a16.0571,16.0571,0,0,0,2.16528,12.12236c2.40572,3.46228,6.82664,5.623,10.95,4.74406,4.70707-1.00334,7.96817-5.59956,8.90127-10.32105s.00667-9.58929-.91854-14.31234Z"
     transform="translate(-154.35252 -77.40283)"
     fill="#2f2e41"
     id="path2163" />
  <path
     d="M691.24187,275.95964c-.47245-4.968-6.5585-8.02646-11.3179-6.52582s-7.88412,6.29289-8.82864,11.19307a16.05711,16.05711,0,0,0,2.16529,12.12236c2.40571,3.46228,6.82663,5.623,10.95,4.74406,4.70707-1.00334,7.96817-5.59955,8.90127-10.32105s.00667-9.58929-.91853-14.31234Z"
     transform="translate(-154.35252 -77.40283)"
     fill="#2f2e41"
     id="path2165" />
  <path
     d="M488.93638,356.14169a4.47525,4.47525,0,0,1-3.30664-1.46436L436.00767,300.544a6.02039,6.02039,0,0,0-4.42627-1.94727H169.3618a15.02615,15.02615,0,0,1-15.00928-15.00927V189.025a15.02615,15.02615,0,0,1,15.00928-15.00928H509.087A15.02615,15.02615,0,0,1,524.0963,189.025v94.5625A15.02615,15.02615,0,0,1,509.087,298.59676h-9.63135a6.01157,6.01157,0,0,0-6.00464,6.00489v47.0332a4.474,4.474,0,0,1-2.87011,4.1958A4.52563,4.52563,0,0,1,488.93638,356.14169Z"
     transform="translate(-154.35252 -77.40283)"
     fill="#fff"
     id="path2167" />
  <path
     d="M488.93638,356.14169a4.47525,4.47525,0,0,1-3.30664-1.46436L436.00767,300.544a6.02039,6.02039,0,0,0-4.42627-1.94727H169.3618a15.02615,15.02615,0,0,1-15.00928-15.00927V189.025a15.02615,15.02615,0,0,1,15.00928-15.00928H509.087A15.02615,15.02615,0,0,1,524.0963,189.025v94.5625A15.02615,15.02615,0,0,1,509.087,298.59676h-9.63135a6.01157,6.01157,0,0,0-6.00464,6.00489v47.0332a4.474,4.474,0,0,1-2.87011,4.1958A4.52563,4.52563,0,0,1,488.93638,356.14169ZM169.3618,176.01571A13.024,13.024,0,0,0,156.35252,189.025v94.5625a13.024,13.024,0,0,0,13.00928,13.00927H431.5814a8.02436,8.02436,0,0,1,5.90039,2.59571l49.62208,54.1333a2.50253,2.50253,0,0,0,4.34716-1.69092v-47.0332a8.0137,8.0137,0,0,1,8.00464-8.00489H509.087a13.024,13.024,0,0,0,13.00928-13.00927V189.025A13.024,13.024,0,0,0,509.087,176.01571Z"
     transform="translate(-154.35252 -77.40283)"
     fill="#3f3d56"
     id="path2169" />
  <circle
     cx="36.81601"
     cy="125.19345"
     r="13.13371"
     fill="#fa941e"
     id="circle2171" />
  <path
     d="M493.76439,275.26947H184.68447a7.00465,7.00465,0,1,1,0-14.00929H493.76439a7.00465,7.00465,0,0,1,0,14.00929Z"
     transform="translate(-154.35252 -77.40283)"
     fill="#e6e6e6"
     id="path2173" />
  <path
     d="M393.07263,245.49973H184.68447a7.00465,7.00465,0,1,1,0-14.00929H393.07263a7.00464,7.00464,0,0,1,0,14.00929Z"
     transform="translate(-154.35252 -77.40283)"
     fill="#e6e6e6"
     id="path2175" />
  <path
     d="M709.41908,676.83065a4.474,4.474,0,0,1-2.87011-4.1958v-47.0332a6.01157,6.01157,0,0,0-6.00464-6.00489H690.913a15.02615,15.02615,0,0,1-15.00928-15.00927V510.025A15.02615,15.02615,0,0,1,690.913,495.01571H1030.6382a15.02615,15.02615,0,0,1,15.00928,15.00928v94.5625a15.02615,15.02615,0,0,1-15.00928,15.00927H768.4186a6.02039,6.02039,0,0,0-4.42627,1.94727l-49.62207,54.1333a4.47525,4.47525,0,0,1-3.30664,1.46436A4.52563,4.52563,0,0,1,709.41908,676.83065Z"
     transform="translate(-154.35252 -77.40283)"
     fill="#fff"
     id="path2177" />
  <path
     d="M709.41908,676.83065a4.474,4.474,0,0,1-2.87011-4.1958v-47.0332a6.01157,6.01157,0,0,0-6.00464-6.00489H690.913a15.02615,15.02615,0,0,1-15.00928-15.00927V510.025A15.02615,15.02615,0,0,1,690.913,495.01571H1030.6382a15.02615,15.02615,0,0,1,15.00928,15.00928v94.5625a15.02615,15.02615,0,0,1-15.00928,15.00927H768.4186a6.02039,6.02039,0,0,0-4.42627,1.94727l-49.62207,54.1333a4.47525,4.47525,0,0,1-3.30664,1.46436A4.52563,4.52563,0,0,1,709.41908,676.83065ZM690.913,497.01571A13.024,13.024,0,0,0,677.9037,510.025v94.5625A13.024,13.024,0,0,0,690.913,617.59676h9.63135a8.0137,8.0137,0,0,1,8.00464,8.00489v47.0332a2.50253,2.50253,0,0,0,4.34716,1.69092l49.62208-54.1333a8.02436,8.02436,0,0,1,5.90039-2.59571h262.2196a13.024,13.024,0,0,0,13.00928-13.00927V510.025a13.024,13.024,0,0,0-13.00928-13.00928Z"
     transform="translate(-154.35252 -77.40283)"
     fill="#3f3d56"
     id="path2179" />
  <path
     d="M603.53027,706.11319a89.06853,89.06853,0,0,1-93.65039,1.49,54.12885,54.12885,0,0,1,9.40039-12.65,53.43288,53.43288,0,0,1,83.90967,10.56994C603.2998,705.71316,603.41992,705.91318,603.53027,706.11319Z"
     transform="translate(-154.35252 -77.40283)"
     fill="#fa941e"
     id="path2181" />
  <circle
     cx="398.44256"
     cy="536.68841"
     r="44.20157"
     fill="#2f2e41"
     id="circle2183" />
  <circle
     cx="556.81859"
     cy="629.4886"
     r="32.89806"
     transform="translate(-416.96496 738.72884) rotate(-61.33685)"
     fill="#ffb8b8"
     id="circle2185" />
  <path
     d="M522.25039,608.79582a44.74387,44.74387,0,0,0,25.57085,7.9025,27.41946,27.41946,0,0,1-10.8677,4.47107,90.22316,90.22316,0,0,0,36.85334.20707,23.852,23.852,0,0,0,7.71488-2.64973,9.76352,9.76352,0,0,0,4.762-6.36865c.80855-4.61909-2.7907-8.81563-6.53113-11.64387a48.17616,48.17616,0,0,0-40.4839-8.08981c-4.52231,1.169-9.05265,3.144-11.99,6.77579s-3.80746,9.23076-1.0089,12.97052Z"
     transform="translate(-154.35252 -77.40283)"
     fill="#2f2e41"
     id="path2187" />
  <path
     d="M555.5,721.17319a89.97205,89.97205,0,1,1,48.5708-14.21875A89.87958,89.87958,0,0,1,555.5,721.17319Zm0-178a88.00832,88.00832,0,1,0,88,88A88.09957,88.09957,0,0,0,555.5,543.17319Z"
     transform="translate(-154.35252 -77.40283)"
     fill="#3f3d56"
     id="path2189" />
  <circle
     cx="563.81601"
     cy="445.19345"
     r="13.13371"
     fill="#fa941e"
     id="circle2191" />
  <path
     d="M1020.76439,595.26947H711.68447a7.00465,7.00465,0,1,1,0-14.00929h309.07992a7.00464,7.00464,0,0,1,0,14.00929Z"
     transform="translate(-154.35252 -77.40283)"
     fill="#e6e6e6"
     id="path2193" />
  <path
     d="M920.07263,565.49973H711.68447a7.00465,7.00465,0,1,1,0-14.00929H920.07263a7.00465,7.00465,0,0,1,0,14.00929Z"
     transform="translate(-154.35252 -77.40283)"
     fill="#e6e6e6"
     id="path2195" />
  <ellipse
     cx="554.64354"
     cy="605.66091"
     rx="24.50394"
     ry="2.71961"
     fill="#f2f2f2"
     id="ellipse2197" />
  <ellipse
     cx="335.64354"
     cy="285.66091"
     rx="24.50394"
     ry="2.71961"
     fill="#f2f2f2"
     id="ellipse2199" />
  <path
     style="fill:#000000;stroke-width:1.58141"
     d="M 420.24167,-0.48801381 C 384.98194,0.17249819 349.53493,-1.4482487 314.39209,1.4949284 284.13736,6.4521931 261.06814,35.113069 261.43567,65.582943 c -0.19609,10.420906 -1.00335,21.479657 0.28799,31.482386 11.1627,1.820828 19.87839,0.08839 16.42148,-13.226661 0.22792,-17.800935 -0.60153,-38.055561 13.01687,-51.722417 9.76017,-11.995097 25.16064,-16.241511 40.06506,-15.370844 6.86729,1.82986 24.5112,-5.467687 22.40222,4.034123 -2.8128,14.112991 10.48957,28.027461 24.80071,26.026554 44.68692,0.426742 89.46386,1.294504 134.11423,-0.518901 12.95412,-1.896307 20.04541,-16.791262 17.42593,-28.89092 8.15208,-2.089998 20.39336,-0.76761 30.2218,-0.540576 17.17028,0.160624 34.7051,9.091309 41.29434,25.678732 9.3324,13.856371 3.66675,31.222397 5.26175,46.88938 0.25527,109.356321 0.51265,218.712621 0.77046,328.068931 11.65346,4.84208 14.30501,-3.99912 12.20344,-14.23271 0.63167,-50.4035 -1.33623,-100.92412 1.24165,-151.25957 1.62846,-2.49634 3.86622,-4.96308 3.08252,-8.82749 0.0981,-22.86674 1.83216,-46.0915 -1.01927,-68.7667 -4.95768,-4.02579 -1.73543,-12.85599 -3.06694,-18.59269 -1.17928,-36.3672 0.26888,-73.159838 -1.76135,-109.266001 C 610.15919,23.868203 590.83244,4.788533 566.44196,1.3590258 517.83492,-1.3637508 468.93131,-0.03821205 420.24167,-0.48801381 Z"
     id="path2213" />
  <path
     style="fill:#000000;stroke-width:1.58141"
     d="m 261.12445,221.39766 c 0.44252,148.61499 -1.04462,297.2509 1.20684,445.85182 0.48281,33.64966 33.03276,62.60639 66.52692,59.80351 80.21654,1.18146 160.45973,0.18246 240.67553,0.16172 26.22048,-7.59016 49.35479,-30.82093 49.55193,-59.24118 0.79912,-40.74707 1.34766,-81.5935 -0.25018,-122.31231 -0.14334,-7.54131 -10.50633,-2.11077 -10.02281,3.07016 -3.49018,42.92731 0.2475,86.24304 -3.66937,129.13216 -4.74558,15.55997 -18.87877,28.72968 -34.41116,32.38187 -86.34549,0 -172.69099,0 -259.03649,0 -14.2263,-5.84317 -25.61436,-17.05725 -30.75194,-31.63032 -4.46165,-13.76002 -0.90528,-29.32105 -2.08992,-43.81716 -0.25832,-137.80008 -0.51416,-275.60018 -0.76932,-413.40027 -4.88585,-0.99257 -12.06636,-0.99956 -16.96003,0 z"
     id="path2215" />
  <path
     style="fill:#800080;stroke-width:1.58141"
     d="m 399.38989,602.80207 c -16.49037,0.25285 -32.10572,10.6901 -41.4472,23.80149 -0.88626,5.63829 8.32627,6.45919 11.93163,8.95104 19.64766,7.83986 42.29523,6.26917 62.1716,0.10782 5.47002,-2.4452 12.20077,-4.51401 15.60483,-9.40171 -10.72225,-14.42507 -27.53496,-24.856 -45.99993,-23.46409 l -1.58141,0.004 z"
     id="path2217" />
  <path
     style="fill:#800080;stroke-width:1.58141"
     d="m 484.23943,300.7277 c -13.84717,-0.41746 -28.09493,7.00565 -35.82269,18.24492 5.22061,5.75801 14.96682,6.48641 22.17188,9.20532 19.5414,4.31788 41.27354,2.1016 58.90019,-7.64553 -9.42076,-13.10166 -26.46304,-21.49092 -43.21076,-19.82558 l -1.58133,0.0162 z"
     id="path2219" />
  <path
     style="fill:#800080;stroke-width:1.58141"
     d="m 563.12161,432.68602 c -12.88972,-0.31481 -16.30169,19.70515 -4.39212,23.90959 10.92149,5.59411 22.44529,-8.82747 15.31066,-18.50437 -2.31867,-3.60768 -6.65835,-5.69457 -10.91854,-5.40522 z"
     id="path2221" />
  <path
     style="fill:#800080;stroke-width:1.58141"
     d="m 35.482928,112.12272 c -8.880704,2.19326 -15.948158,15.12643 -7.496262,22.01622 8.795799,10.67348 26.943589,-3.32485 20.014744,-14.7825 -2.405358,-4.41424 -7.511215,-7.32379 -12.518482,-7.23372 z"
     id="path2223" />
  <path
     style="fill:#4d4d4d;stroke-width:1.58141"
     d="m 97.735576,154.39151 c -23.628537,0.8034 -47.663625,-1.53352 -71.036896,2.38447 -5.77222,2.05187 -1.940582,12.31914 4.091679,10.14969 69.078271,2.10179 138.275471,2.11061 207.353361,-0.007 8.21553,2.49104 9.26886,-13.23309 1.04482,-11.77387 -47.14162,-0.98945 -94.30343,-0.69495 -141.452964,-0.75364 z"
     id="path2225" />
  <path
     style="fill:#4d4d4d;stroke-width:1.58141"
     d="m 223.22308,184.73485 c -65.97358,0.12653 -131.946991,0.32243 -197.92049,0.48184 -3.199879,4.64096 -0.474917,13.22428 6.384332,11.8019 85.241168,2.29181 170.557738,0.99336 255.827088,0.96434 18.55834,-0.84372 37.71368,0.9623 55.97049,-1.86624 5.63954,-3.76794 1.09279,-12.91645 -5.53802,-10.56025 -38.22201,-1.20915 -76.48733,-0.68778 -114.7234,-0.82159 z"
     id="path2365" />
  <path
     style="fill:#4d4d4d;stroke-width:1.58141"
     d="m 661.72511,473.83053 c -35.93543,0.47089 -72.00723,-0.45781 -107.85723,1.71731 -6.25699,3.02281 -2.59385,13.10061 4.31971,11.05576 66.71562,1.76667 133.50573,1.2371 200.23838,0.50523 5.47558,0.26781 16.18321,0.11079 13.28756,-8.35492 -2.88161,-7.57687 -13.32213,-2.87914 -19.35657,-4.46736 -30.20736,-0.49433 -60.4213,-0.48561 -90.63185,-0.45602 z"
     id="path2367" />
  <path
     style="fill:#4d4d4d;stroke-width:1.58141"
     d="m 612.07743,504.22328 c -19.69469,0.56997 -39.70061,-0.75286 -59.21955,1.57524 -4.75536,3.70164 -1.48468,12.63332 5.00059,10.74248 93.26022,1.88924 186.57185,0.51398 279.84812,0.18532 11.09361,-1.05222 23.24418,1.31987 33.76563,-2.56053 3.72864,-4.32717 -1.43467,-9.6743 -6.40597,-8.41669 -81.51254,-2.34259 -163.10943,-1.16782 -244.65549,-1.54278 -2.77778,0.006 -5.55555,0.0113 -8.33333,0.017 z"
     id="path2369" />
  <path
     style="fill:#000000;stroke-width:1.58141"
     d="m 397.36061,492.81982 c -28.6528,0.42157 -52.02426,33.77895 -39.0411,60.3809 3.31547,6.60337 7.3152,15.50131 14.60335,17.93914 1.56684,-4.68069 -3.59336,-9.84113 -2.786,-15.01723 -0.249,-6.90504 -0.71297,-15.39063 3.8238,-20.74986 6.6294,0.88135 13.01728,3.35199 19.65337,4.39522 -2.13361,0.36767 -7.91264,4.18631 -2.7613,4.82454 12.19003,1.72511 25.70517,1.09405 36.93771,-4.11723 2.47548,-1.66171 3.62692,-7.60902 5.08708,-1.75438 3.19222,5.83814 0.86054,14.25807 3.45625,19.01401 13.95221,-21.26297 1.88643,-52.03507 -21.10506,-61.17779 -5.59052,-2.51088 -11.72135,-3.94018 -17.8681,-3.73732 z"
     id="path2371" />
  <path
     style="fill:#ff6600;stroke-width:1.58141"
     d="m 460.41015,184.98503 c -10.47352,2.80566 -13.96575,18.37058 -6.0384,25.63926 -3.0003,9.63215 -6.89212,19.65427 -5.15195,30.13022 0.65913,5.05685 2.00046,12.26686 5.77586,14.66204 0.4248,-6.66627 0.18207,-15.69581 4.82763,-20.69426 3.84778,7.51269 15.18244,6.81628 22.45791,8.54951 6.14671,0.12116 14.24719,1.77282 19.33523,-1.99839 -1.02305,-2.42803 -5.71479,-3.93727 -0.16679,-4.27166 5.18081,-0.033 11.09146,-5.20066 15.84809,-2.88484 5.4086,10.72309 2.85796,23.46987 -0.37991,34.37717 3.46113,2.231 6.71546,-4.7676 9.09003,-6.67158 9.02936,-11.65509 11.63905,-27.3426 7.74027,-41.40087 2.47698,-7.17089 8.5811,-15.72987 2.49258,-22.96753 -3.87928,-7.17726 -13.49332,-5.63104 -17.41263,0.66993 -6.79691,-0.18134 -14.61864,-6.75633 -22.78674,-6.65891 -8.53154,-1.56851 -16.94518,3.07796 -24.91032,3.5767 0.0969,-5.2114 -5.94601,-9.73813 -10.72086,-10.05679 z"
     id="path2373" />
  <path
     style="fill:#ffb380;stroke-width:1.58141"
     d="m 514.4654,234.49373 c -4.71246,2.11386 -11.41528,1.63234 -14.98326,3.5242 1.17,0.62787 11.03471,3.75168 5.11179,4.70717 -15.16414,1.0657 -31.76483,2.95241 -45.11966,-5.74806 -8.60212,13.32175 -0.92955,33.67997 12.98796,40.953 17.20755,10.2539 42.91231,0.27215 46.34896,-20.15373 1.53437,-7.34705 3.11389,-18.02291 -3.47787,-23.2239 -0.28455,-0.0651 -0.57773,-0.073 -0.86792,-0.0587 z"
     id="path2789" />
  <path
     style="fill:#deaa87;stroke-width:1.58141"
     d="m 375.22394,536.49706 c -6.08705,4.6461 -5.32584,15.05254 -4.31182,22.01622 3.50149,18.56354 24.58526,31.19796 42.37381,23.62542 17.62877,-4.72093 26.24481,-27.75437 18.69587,-43.12127 -14.49869,8.25784 -32.0658,7.41288 -48.10643,5.1643 -0.77603,-2.52517 10.99696,-3.70262 5.17119,-5.31047 -4.86753,0.40595 -9.24906,-1.55657 -13.82262,-2.3742 z"
     id="path2791" />
</svg>
