<?xml version="1.0" encoding="UTF-8" standalone="no"?>
<svg
   data-name="Layer 1"
   width="790"
   height="512.20805"
   viewBox="0 0 790 512.20805"
   version="1.1"
   id="svg3227"
   sodipodi:docname="onboarding_three.svg"
   inkscape:version="1.2.2 (b0a8486, 2022-12-01)"
   xmlns:inkscape="http://www.inkscape.org/namespaces/inkscape"
   xmlns:sodipodi="http://sodipodi.sourceforge.net/DTD/sodipodi-0.dtd"
   xmlns="http://www.w3.org/2000/svg"
   xmlns:svg="http://www.w3.org/2000/svg">
  <defs
     id="defs3231" />
  <sodipodi:namedview
     id="namedview3229"
     pagecolor="#ffffff"
     bordercolor="#000000"
     borderopacity="0.25"
     inkscape:showpageshadow="2"
     inkscape:pageopacity="0.0"
     inkscape:pagecheckerboard="0"
     inkscape:deskcolor="#d1d1d1"
     showgrid="false"
     inkscape:zoom="0.90028971"
     inkscape:cx="460.40735"
     inkscape:cy="313.78788"
     inkscape:window-width="1321"
     inkscape:window-height="755"
     inkscape:window-x="1947"
     inkscape:window-y="131"
     inkscape:window-maximized="0"
     inkscape:current-layer="svg3227" />
  <path
     d="M925.56335,704.58909,903,636.49819s24.81818,24.81818,24.81818,45.18181l-4.45454-47.09091s12.72727,17.18182,11.45454,43.27273S925.56335,704.58909,925.56335,704.58909Z"
     transform="translate(-205 -193.89598)"
     fill="#e6e6e6"
     id="path3189" />
  <path
     d="M441.02093,642.58909,419,576.13509s24.22155,24.22155,24.22155,44.09565l-4.34745-45.95885s12.42131,16.76877,11.17917,42.23245S441.02093,642.58909,441.02093,642.58909Z"
     transform="translate(-205 -193.89598)"
     fill="#e6e6e6"
     id="path3191" />
  <path
     d="M784.72555,673.25478c.03773,43.71478-86.66489,30.26818-192.8092,30.35979s-191.53562,13.68671-191.57335-30.028,86.63317-53.29714,192.77748-53.38876S784.68782,629.54,784.72555,673.25478Z"
     transform="translate(-205 -193.89598)"
     fill="#e6e6e6"
     id="path3193" />
  <rect
     y="509.69312"
     width="790"
     height="2"
     fill="#3f3d56"
     id="rect3195" />
  <polygon
     points="505.336 420.322 491.459 420.322 484.855 366.797 505.336 366.797 505.336 420.322"
     fill="#a0616a"
     id="polygon3197" />
  <path
     d="M480.00587,416.35743H508.3101a0,0,0,0,1,0,0V433.208a0,0,0,0,1,0,0H464.69674a0,0,0,0,1,0,0v-1.54149A15.30912,15.30912,0,0,1,480.00587,416.35743Z"
     fill="#2f2e41"
     id="path3199" />
  <polygon
     points="607.336 499.322 593.459 499.322 586.855 445.797 607.336 445.797 607.336 499.322"
     fill="#a0616a"
     id="polygon3201" />
  <path
     d="M582.00587,495.35743H610.3101a0,0,0,0,1,0,0V512.208a0,0,0,0,1,0,0H566.69674a0,0,0,0,1,0,0v-1.54149A15.30912,15.30912,0,0,1,582.00587,495.35743Z"
     fill="#2f2e41"
     id="path3203" />
  <path
     d="M876.34486,534.205A10.31591,10.31591,0,0,0,873.449,518.654l-32.23009-131.2928L820.6113,396.2276l38.33533,126.949a10.37185,10.37185,0,0,0,17.39823,11.0284Z"
     transform="translate(-205 -193.89598)"
     fill="#a0616a"
     id="path3205" />
  <path
     d="M851.20767,268.85955a11.38227,11.38227,0,0,0-17.41522,1.15247l-49.88538,5.72709,7.58861,19.24141,45.36779-8.49083a11.44393,11.44393,0,0,0,14.3442-17.63014Z"
     transform="translate(-205 -193.89598)"
     fill="#a0616a"
     id="path3207" />
  <path
     d="M769,520.58909l21.76811,163.37417,27.09338-5.578s-3.98437-118.98157,9.56238-133.32513S810,505.58909,810,505.58909Z"
     transform="translate(-205 -193.89598)"
     fill="#2f2e41"
     id="path3209" />
  <path
     d="M778,475.58909l-10,15s-77-31.99929-77,19-4.40631,85.60944-6,88,18.43762,8.59375,28,7c0,0,11.79687-82.21884,11-87,0,0,75.53355,37.03335,89.87712,33.84591S831.60944,536.964,834,530.58909s-1-57-1-57l-47.81-14.59036Z"
     transform="translate(-205 -193.89598)"
     fill="#2f2e41"
     id="path3211" />
  <path
     d="M779.34915,385.52862l-2.85032-3.42039s-31.92361-71.82815-19.3822-91.21035,67.26762-22.23252,68.97783-21.0924-4.08488,15.9428-.09446,22.78361c0,0-42.394,9.19121-45.24435,10.33134s21.96615,43.2737,21.96615,43.2737l-2.85031,25.6529Z"
     transform="translate(-205 -193.89598)"
     fill="#ccc"
     id="path3213" />
  <path
     d="M835.21549,350.18459S805.57217,353.605,804.432,353.605s-1.71017-7.41084-1.71017-7.41084l-26.223,35.91406S763.57961,486.29929,767,484.58909s66.50531,8.11165,67.07539,3.55114-.57008-27.3631,1.14014-28.50324,29.64328-71.82811,29.64328-71.82811-2.85032-14.82168-12.54142-19.95227S835.21549,350.18459,835.21549,350.18459Z"
     transform="translate(-205 -193.89598)"
     fill="#ccc"
     id="path3215" />
  <path
     d="M855.73783,378.11779l9.121,9.69109S878.41081,499.1687,871,502.58909s-22,3-22,3l-14.35458-52.79286Z"
     transform="translate(-205 -193.89598)"
     fill="#ccc"
     id="path3217" />
  <circle
     cx="601.72966"
     cy="122.9976"
     r="26.2388"
     fill="#a0616a"
     id="circle3219" />
  <path
     d="M800.57267,320.98789c-.35442-5.44445-7.22306-5.631-12.67878-5.68255s-11.97836.14321-15.0654-4.35543c-2.0401-2.973-1.65042-7.10032.035-10.28779s4.45772-5.639,7.18508-7.99742c7.04139-6.08884,14.29842-12.12936,22.7522-16.02662s18.36045-5.472,27.12788-2.3435c10.77008,3.84307,25.32927,23.62588,26.5865,34.99176s-3.28507,22.95252-10.9419,31.44586-25.18188,5.0665-36.21069,8.088c6.7049-9.48964,2.28541-26.73258-8.45572-31.164Z"
     transform="translate(-205 -193.89598)"
     fill="#2f2e41"
     id="path3221" />
  <circle
     cx="361.7217"
     cy="403.5046"
     r="62.98931"
     fill="#fa941e"
     id="circle3223" />
  <path
     d="M524.65625,529.9355a45.15919,45.15919,0,0,1-41.25537-26.78614L383.44873,278.05757a59.83039,59.83039,0,1,1,111.87012-41.86426l72.37744,235.41211a45.07978,45.07978,0,0,1-43.04,58.33008Z"
     transform="translate(-205 -193.89598)"
     fill="#fa941e"
     id="path3225" />
  <path
     style="fill:#800080;stroke-width:2.17037"
     d="M 231.19561,0.95801628 C 194.2594,1.1728516 163.45565,42.293934 177.92397,77.387368 c 31.64427,79.226212 67.94819,156.554722 103.17327,234.247702 11.22783,23.3451 44.8371,31.42028 64.84837,14.29818 15.1418,-10.83871 22.97981,-31.83403 14.40138,-49.25063 C 336.45405,194.63076 312.57948,112.46387 285.04376,31.567909 273.86195,13.699346 252.85912,-0.23343917 231.19561,0.95801628 Z"
     id="path3239" />
  <path
     style="fill:#800080;stroke-width:2.17037"
     d="m 361.29507,341.57096 c -35.69087,-0.43683 -66.13559,34.12183 -60.96544,69.50281 3.29474,38.23321 47.60806,65.56669 83.08945,50.28967 33.95731,-11.91763 51.41525,-55.86429 32.41086,-87.10972 -10.58616,-19.62493 -31.96901,-33.34341 -54.53487,-32.68276 z"
     id="path3241" />
  <path
     style="fill:#d45500;stroke-width:2.17037"
     d="m 516.96848,287.51934 c -15.17812,-0.66669 -31.26222,10.76263 -29.37348,27.29107 -1.78621,30.10167 -2.89604,60.68487 -6.29355,90.37537 7.42206,1.70065 18.78187,8.52072 25.28993,2.03896 7.25251,-27.19316 7.53651,-55.93833 12.53475,-83.64838 15.88051,6.66912 32.08546,13.48031 47.15475,21.63167 8.44371,47.73496 11.80531,97.15766 21.04245,144.30438 11.37001,-3.08983 29.05657,-1.40385 23.51988,-18.61246 2.72301,-38.75927 -1.65034,-79.06038 9.44266,-116.63316 10.96241,-17.19992 9.11042,-38.57579 8.08803,-57.67597 -20.49868,-0.42771 -41.50368,-6.34208 -61.82172,-2.97155 -8.67954,6.36674 -19.4695,-3.33137 -28.9482,-3.74728 -6.76601,-1.50743 -13.68632,-2.54922 -20.6355,-2.35265 z"
     id="path3243" />
  <path
     style="fill:#d45500;stroke-width:1.09769"
     d="m 613.62999,79.056966 c -18.46235,1.188488 -33.59271,14.259285 -45.35673,27.431424 -3.7915,4.89007 -1.39548,12.55315 4.96746,13.57315 10.11022,2.87486 23.75617,0.1365 30.2078,10.48804 5.39369,6.83474 1.36967,16.39386 3.62322,23.76104 12.03257,-1.93228 28.07134,0.82679 35.94707,-10.87824 9.27863,-11.65365 11.72184,-29.07387 2.87928,-41.69705 -7.00905,-11.31636 -17.34353,-24.209476 -32.2681,-22.678364 z"
     id="path3245" />
  <path
     style="fill:#e9afaf;stroke-width:1.09769"
     d="m 615.25293,75.849665 c -20.6481,1.471363 -42.81765,4.548556 -59.7467,17.408611 -9.56585,8.227554 -5.87324,22.517564 -4.32216,33.304764 3.8311,21.99075 13.7536,42.27702 19.73907,63.5703 -2.86939,32.87951 -8.4099,65.68976 -9.28959,98.71883 3.00655,3.96449 9.7061,1.24592 13.97719,2.63926 17.58996,1.37185 35.12325,4.12779 52.81228,3.83753 1.96233,-9.36256 -0.97256,-20.89963 2.44406,-30.05774 5.58238,15.19391 8.04679,31.8025 13.52384,46.75671 7.10884,-1.64316 17.64466,1.14778 22.32676,-5.99869 3.23013,-10.2528 0.35182,-21.40415 0.50348,-31.96025 -2.1097,-27.75938 -3.09411,-55.80307 -8.33951,-83.18099 -2.47215,-10.21423 -11.04727,-16.69748 -18.92436,-22.70837 -4.38364,-2.99917 -6.33992,-9.70395 -11.03056,-11.32929 -9.9878,0.89372 -19.97147,1.8288 -30.00402,1.71167 -0.98581,-5.63394 -3.67664,-11.27294 -9.61761,-12.94069 -8.93207,-4.10004 -12.70789,-13.82226 -14.59365,-22.83486 -1.34385,-3.02495 -5.87821,-2.56986 -6.91414,-6.28383 -4.48015,-7.65063 3.96988,-14.93532 9.17811,-19.419604 11.48555,-10.024134 25.32329,-19.33696 41.25541,-18.191142 2.76273,0.623801 4.48048,-3.252491 0.81469,-3.014348 -1.26143,-0.113327 -2.52896,-0.05941 -3.79259,-0.02787 z"
     id="path3247" />
  <path
     style="fill:#000080;stroke-width:1.09769"
     d="m 517.48385,287.69446 c -13.8541,-0.95992 -29.16992,9.03722 -29.52175,23.80392 -2.36221,30.56028 -3.682,61.21377 -6.0973,91.7704 2.31653,4.79503 9.36229,4.44555 13.89688,5.81216 4.74077,1.12183 11.72881,0.67176 11.6479,-5.79286 6.42029,-25.72681 6.66983,-52.53573 11.96306,-78.40736 2.17583,-1.87335 5.98338,2.13965 8.56588,2.39494 12.79565,5.78321 26.08809,11.11651 38.26372,17.89938 8.13086,47.71649 11.89502,96.14284 21.11973,143.68751 7.26412,-0.73071 16.75184,-1.29415 22.59689,-6.85625 2.68262,-6.96874 0.74472,-15.15241 1.69036,-22.52333 1.34459,-32.80098 -0.49214,-66.19617 6.91747,-98.33789 3.5906,-11.62277 10.00781,-22.54085 10.03264,-35.06923 0.39213,-9.69158 1.0693,-19.95113 -0.0741,-29.30404 -23.95982,-2.97871 -48.2428,-3.86453 -72.28433,-1.96383 -12.7716,-3.08816 -25.32716,-7.62692 -38.71701,-7.11352 z"
     id="path3939" />
  <path
     style="fill:#000000;stroke-width:1.09769"
     d="m 493.13538,415.99507 c -9.11855,0.3586 -22.50617,-1.18272 -26.63175,9.35392 -1.00619,2.41212 -4.46372,8.14064 0.75895,7.80815 13.44628,0.913 26.94936,0.28533 40.41714,0.48023 0.23215,-4.90606 2.48019,-14.59534 -1.09769,-17.6641 -4.48222,0.007 -8.96443,0.0145 -13.44665,0.0218 z"
     id="path3941" />
  <path
     style="fill:#000000;stroke-width:1.09769"
     d="m 593.56077,495.17853 c -8.65733,0.39287 -20.49434,-1.2026 -24.89303,8.44704 -1.24057,3.14523 -5.02012,10.61757 1.40641,9.04519 13.34277,-0.41122 27.36259,0.8121 40.29065,-0.6003 -1.54983,-5.10496 3.28909,-16.20338 -2.80794,-17.21625 -4.66537,0.1081 -9.33073,0.21621 -13.99609,0.32432 z"
     id="path3943" />
  <path
     style="fill:#ffffff;stroke-width:1.09769"
     d="m 719.76678,444.82648 c -1.2769,7.76857 0.95594,16.36749 1.20883,24.38713 0.10636,2.69532 1.15681,10.39582 0.59206,10.40222 -4.36495,-11.68147 -10.68726,-23.11602 -19.28669,-32.16734 -3.66574,-0.79294 -0.15679,5.00198 -0.18009,6.5218 5.88035,18.32203 10.96523,37.09406 18.13969,54.89287 4.20768,1.4161 5.9538,-5.4905 7.09423,-8.3377 4.42962,-18.41244 3.21579,-39.25696 -6.79408,-55.63681 -0.22831,-0.14115 -0.52267,-0.1897 -0.77395,-0.0622 z"
     id="path3945" />
  <path
     style="fill:#deaa87;stroke-width:1.11075"
     d="m 657.09317,310.62484 c -2.68568,0.76027 -10.31808,-0.92076 -7.51494,4.14797 2.62879,7.06717 3.76866,14.35093 4.09156,21.75081 1.62491,7.62625 12.5013,10.46061 17.04096,3.69672 4.65119,-4.64131 1.94894,-11.35928 -1.62274,-15.65468 -2.63879,-4.47226 -2.42869,-10.26534 -4.6361,-14.59599 -2.45291,0.21839 -4.90583,0.43678 -7.35874,0.65517 z"
     id="path4018" />
  <path
     style="fill:#deaa87;stroke-width:1.11075"
     d="m 577.8153,121.08299 c -4.84637,0.19537 -1.3832,6.88609 -0.64215,9.41537 3.72684,11.9942 17.10467,21.07734 29.34385,17.78724 0.69157,-8.42369 -0.78375,-20.20595 -10.02932,-23.26291 -1.53322,1.89259 -2.84697,-1.96652 -5.12422,-1.56851 -4.40459,-1.25302 -8.95785,-2.24107 -13.54816,-2.37119 z"
     id="path4020" />
  <path
     style="fill:#deaa87;stroke-width:1.11075"
     d="m 636.77202,71.704349 c -5.09046,0.03215 -7.74227,6.129423 -13.18803,4.974527 -3.46595,-0.404789 -2.99794,3.733091 0.2061,3.518833 7.65093,1.942023 11.69961,10.608166 18.81773,13.042676 6.66191,-2.977343 9.07668,-12.139189 3.72493,-17.56596 -2.36181,-2.682192 -5.99379,-4.191045 -9.56073,-3.970076 z"
     id="path4022" />
  <path
     style="fill:#deaa87;stroke-width:1.11075"
     d="m 600.1779,487.04591 c -2.91228,0.91083 -9.77934,0.5593 -7.43901,5.50821 2.10804,5.39521 10.09758,1.69477 14.28793,2.88753 1.65848,-6.21791 1.62712,-12.53968 -6.84892,-8.39574 z"
     id="path4024" />
  <path
     style="fill:#deaa87;stroke-width:1.11075"
     d="m 490.7665,409.13479 c -1.66232,2.70625 0.41107,8.47344 4.59271,7.40864 2.85387,-0.32785 11.19217,1.65388 9.82322,-3.69672 -3.51956,-3.35104 -9.92354,-2.65526 -14.41593,-3.71192 z"
     id="path4026" />
</svg>
